Coordinates
version=1
nRows=8
nColumns=40
inDegrees=yes

Units are S.I. units (second, meters, Newtons, ...)
Angles are in degrees.

endheader
time	pelvis_tilt	pelvis_list	pelvis_rotation	pelvis_tx	pelvis_ty	pelvis_tz	hip_flexion_r	hip_adduction_r	hip_rotation_r	knee_angle_r	knee_angle_r_beta	ankle_angle_r	subtalar_angle_r	mtp_angle_r	hip_flexion_l	hip_adduction_l	hip_rotation_l	knee_angle_l	knee_angle_l_beta	ankle_angle_l	subtalar_angle_l	mtp_angle_l	lumbar_extension	lumbar_bending	lumbar_rotation	arm_flex_r	arm_add_r	arm_rot_r	elbow_flex_r	pro_sup_r	wrist_flex_r	wrist_dev_r	arm_flex_l	arm_add_l	arm_rot_l	elbow_flex_l	pro_sup_l	wrist_flex_l	wrist_dev_l
     39.49000000	     -4.26707049	     -4.40887054	     -1.88048429	      0.85586571	      0.93167612	      0.43474190	     33.21113395	     -4.28979015	     -6.81800965	     60.13951447	     60.13951447	     -0.32720224	    -18.19902182	      5.29720131	     11.17626794	     -4.40205037	     -6.09945371	     20.81341023	     20.81341023	     16.00187623	    -12.18880288	      2.38238781	    -10.93498601	      7.08893801	      0.47394782	     -2.24780506	    -13.05414814	    -22.49722970	     27.24855044	     46.98972319	      0.00000000	      0.00000000	     -1.57754626	    -18.98091814	     -8.14794164	     77.54879424	     47.34435722	      0.00000000	      0.00000000
     39.50371429	     -4.47226058	     -4.63949428	     -2.31127374	      0.85426989	      0.93198125	      0.43564914	     33.52882417	     -3.69329104	     -7.05703131	     56.95509230	     56.95509230	      0.37542404	    -17.79199970	      5.15368106	     10.63371446	     -4.68857199	     -6.39493899	     20.22008736	     20.22008736	     16.09257569	    -12.15329714	      2.34707471	    -10.90614157	      7.24853886	      0.46808759	     -1.63536001	    -12.55255390	    -22.37862451	     27.42698407	     46.97248345	      0.00000000	      0.00000000	     -0.86642005	    -18.93352734	     -8.06700158	     78.07136625	     47.35498168	      0.00000000	      0.00000000
     39.51742857	     -4.75639833	     -4.80814439	     -2.76526948	      0.85256259	      0.93197636	      0.43667536	     33.81735831	     -3.14069087	     -7.25923222	     53.43935616	     53.43935616	      1.05165379	    -17.04692644	      4.92815218	     10.21515110	     -4.92964052	     -6.76082835	     19.68830403	     19.68830403	     16.17765054	    -12.10076933	      2.27493050	    -10.86401626	      7.35202233	      0.49453953	     -0.95113695	    -11.98176782	    -22.22018385	     27.63835441	     46.95177455	      0.00000000	      0.00000000	     -0.12199682	    -18.90969799	     -7.92221684	     78.68399080	     47.36219895	      0.00000000	      0.00000000
     39.53114286	     -4.87090278	     -4.91564188	     -3.23308516	      0.85114988	      0.93195925	      0.43777480	     33.61803056	     -2.67501136	     -7.54069813	     49.30818666	     49.30818666	      0.51250078	    -16.43243489	      1.05073660	      9.51369118	     -5.12511528	     -7.34854456	     19.01136828	     19.01136828	     15.98219887	    -11.84647988	      1.10858500	    -10.98712649	      7.32014576	      0.60253228	     -0.20029017	    -11.56593810	    -21.48526323	     27.63840922	     46.88028143	      0.00000000	      0.00000000	      0.29451134	    -19.22812656	     -7.07821188	     80.24729075	     47.37049516	      0.00000000	      0.00000000
     39.54485714	     -5.10932187	     -5.06672526	     -3.64043558	      0.84963900	      0.93167681	      0.43891170	     33.51692976	     -2.13003353	     -7.81659435	     45.13061726	     45.13061726	      1.08179685	    -15.04279843	      0.75883660	      9.12100236	     -5.34277954	     -7.63765995	     18.64998476	     18.64998476	     16.11642099	    -11.89409825	      1.01412169	    -10.98875006	      7.41742852	      0.59766330	      0.58794093	    -11.05907077	    -21.21021990	     27.97076471	     46.84541411	      0.00000000	      0.00000000	      1.09289915	    -19.09603989	     -7.00936586	     80.55663008	     47.38092942	      0.00000000	      0.00000000
     39.55857143	     -5.37127290	     -5.17787426	     -4.00965883	      0.84825481	      0.93121421	      0.44004061	     33.27362603	     -1.66116842	     -8.20435987	     40.70486100	     40.70486100	      1.56740114	    -13.18798328	      0.48565952	      8.75393878	     -5.52394806	     -7.96384009	     18.29612231	     18.29612231	     16.28346807	    -11.81512181	      0.83420316	    -10.94601087	      7.49866574	      0.62831172	      1.35969974	    -10.58466466	    -20.89944629	     28.30010521	     46.80896454	      0.00000000	      0.00000000	      1.83742081	    -18.95913782	     -6.78118664	     81.01755826	     47.38203201	      0.00000000	      0.00000000
     39.57228571	     -5.55857504	     -5.16952792	     -4.36237907	      0.84712904	      0.93062658	      0.44118585	     32.77336413	     -1.39317461	     -8.83796856	     36.07909004	     36.07909004	      1.63254975	    -10.73247345	     -1.14099344	      8.24552577	     -5.59124861	     -8.48655811	     17.84350567	     17.84350567	     16.35461852	    -11.47798471	      0.21564990	    -10.96503167	      7.41744613	      0.74417072	      1.99214669	    -10.22899147	    -19.85886851	     28.77290511	     46.70477822	      0.00000000	      0.00000000	      2.63716609	    -18.94025222	     -6.13541159	     81.59768710	     47.37515199	      0.00000000	      0.00000000
     39.58600000	     -5.83961917	     -5.26907357	     -4.66327533	      0.84608777	      0.92982164	      0.44249532	     32.25537057	     -0.83829417	     -9.25048363	     31.40397530	     31.40397530	      1.83859768	     -8.66948045	     -0.86150855	      7.96514750	     -5.76951334	     -8.70870985	     17.64907439	     17.64907439	     16.54502018	    -11.53978586	      0.01770515	    -10.87074981	      7.47905593	      0.73342023	      2.82065532	     -9.77792377	    -19.50174366	     29.19968841	     46.66300675	      0.00000000	      0.00000000	      3.30985663	    -18.78250132	     -5.87740098	     81.95618724	     47.37427463	      0.00000000	      0.00000000
